<svg width="1951" height="2043" viewBox="0 0 1951 2043" fill="none" xmlns="http://www.w3.org/2000/svg">
<g filter="url(#filter0_f_318_10)">
<path d="M397 573.5C397 770.942 236.942 931 39.5 931C-157.942 931 -318 770.942 -318 573.5C-318 376.058 -157.942 216 39.5 216C236.942 216 397 376.058 397 573.5Z" fill="url(#paint0_linear_318_10)" fill-opacity="0.15"/>
</g>
<g filter="url(#filter1_f_318_10)">
<path d="M760 1550.5C760 1712.04 629.043 1843 467.5 1843C305.957 1843 175 1712.04 175 1550.5C175 1388.96 305.957 1258 467.5 1258C629.043 1258 760 1388.96 760 1550.5Z" fill="url(#paint1_linear_318_10)" fill-opacity="0.2"/>
</g>
<g filter="url(#filter2_f_318_10)">
<circle cx="1834.5" cy="266.5" r="223.5" fill="url(#paint2_linear_318_10)" fill-opacity="0.15"/>
</g>
<defs>
<filter id="filter0_f_318_10" x="-518" y="16" width="1115" height="1115" filterUnits="userSpaceOnUse" color-interpolation-filters="sRGB">
<feFlood flood-opacity="0" result="BackgroundImageFix"/>
<feBlend mode="normal" in="SourceGraphic" in2="BackgroundImageFix" result="shape"/>
<feGaussianBlur stdDeviation="100" result="effect1_foregroundBlur_318_10"/>
</filter>
<filter id="filter1_f_318_10" x="-25" y="1058" width="985" height="985" filterUnits="userSpaceOnUse" color-interpolation-filters="sRGB">
<feFlood flood-opacity="0" result="BackgroundImageFix"/>
<feBlend mode="normal" in="SourceGraphic" in2="BackgroundImageFix" result="shape"/>
<feGaussianBlur stdDeviation="100" result="effect1_foregroundBlur_318_10"/>
</filter>
<filter id="filter2_f_318_10" x="1411" y="-157" width="847" height="847" filterUnits="userSpaceOnUse" color-interpolation-filters="sRGB">
<feFlood flood-opacity="0" result="BackgroundImageFix"/>
<feBlend mode="normal" in="SourceGraphic" in2="BackgroundImageFix" result="shape"/>
<feGaussianBlur stdDeviation="100" result="effect1_foregroundBlur_318_10"/>
</filter>
<linearGradient id="paint0_linear_318_10" x1="631" y1="765" x2="-144.5" y2="445.5" gradientUnits="userSpaceOnUse">
<stop stop-color="#9DF941"/>
<stop offset="1" stop-color="#116455"/>
</linearGradient>
<linearGradient id="paint1_linear_318_10" x1="951.454" y1="1707.18" x2="316.955" y2="1445.77" gradientUnits="userSpaceOnUse">
<stop stop-color="#9DF941"/>
<stop offset="1" stop-color="#116455"/>
</linearGradient>
<linearGradient id="paint2_linear_318_10" x1="2204.29" y1="386.221" x2="1719.47" y2="186.478" gradientUnits="userSpaceOnUse">
<stop stop-color="#9DF941"/>
<stop offset="1" stop-color="#116455"/>
</linearGradient>
</defs>
</svg>
